<svg width="283" height="46" viewBox="0 0 283 46" fill="none" xmlns="http://www.w3.org/2000/svg">
<rect x="29.2266" width="1" height="53.5402" transform="rotate(33.0814 29.2266 0)" fill="#545454"/>
<rect x="173.227" width="1" height="53.5402" transform="rotate(33.0814 173.227 0)" fill="#545454"/>
<rect x="101.227" width="1" height="53.5402" transform="rotate(33.0814 101.227 0)" fill="#545454"/>
<rect x="245.227" width="1" height="53.5402" transform="rotate(33.0814 245.227 0)" fill="#545454"/>
<rect x="53.2266" width="1" height="53.5402" transform="rotate(33.0814 53.2266 0)" fill="#545454"/>
<rect x="197.227" width="1" height="53.5402" transform="rotate(33.0814 197.227 0)" fill="#545454"/>
<rect x="125.227" width="1" height="53.5402" transform="rotate(33.0814 125.227 0)" fill="#545454"/>
<rect x="269.227" width="1" height="53.5402" transform="rotate(33.0814 269.227 0)" fill="#545454"/>
<rect x="77.2266" width="1" height="53.5402" transform="rotate(33.0814 77.2266 0)" fill="#545454"/>
<rect x="221.227" width="1" height="53.5402" transform="rotate(33.0814 221.227 0)" fill="#545454"/>
<rect x="149.227" width="1" height="53.5402" transform="rotate(33.0814 149.227 0)" fill="#545454"/>
<rect x="41.2266" width="1" height="53.5402" transform="rotate(33.0814 41.2266 0)" fill="#545454"/>
<rect x="185.227" width="1" height="53.5402" transform="rotate(33.0814 185.227 0)" fill="#545454"/>
<rect x="113.227" width="1" height="53.5402" transform="rotate(33.0814 113.227 0)" fill="#545454"/>
<rect x="257.227" width="1" height="53.5402" transform="rotate(33.0814 257.227 0)" fill="#545454"/>
<rect x="65.2266" width="1" height="53.5402" transform="rotate(33.0814 65.2266 0)" fill="#545454"/>
<rect x="209.227" width="1" height="53.5402" transform="rotate(33.0814 209.227 0)" fill="#545454"/>
<rect x="137.227" width="1" height="53.5402" transform="rotate(33.0814 137.227 0)" fill="#545454"/>
<rect x="281.227" width="1" height="53.5402" transform="rotate(33.0814 281.227 0)" fill="#545454"/>
<rect x="89.2266" width="1" height="53.5402" transform="rotate(33.0814 89.2266 0)" fill="#545454"/>
<rect x="233.227" width="1" height="53.5402" transform="rotate(33.0814 233.227 0)" fill="#545454"/>
<rect x="161.227" width="1" height="53.5402" transform="rotate(33.0814 161.227 0)" fill="#545454"/>
</svg>
